<svg xmlns="http://www.w3.org/2000/svg" xml:space="preserve" viewBox="0 0 24 24" width="24" height="24"><rect width="24" height="24" ry="0" style="fill:#1867c0;fill-opacity:1;stroke:none;stroke-width:1.12128;stroke-dasharray:2.52835,1.26418"></rect><path d="M6.738 16.325c-.013-.013-.024-2.281-.024-5.04V6.272H9.42v.81c.002 2.025.014 2.827.044 2.845.017.01.357-.315.754-.723s1.211-1.236 1.805-1.838l1.083-1.098 1.593.01 1.593.011-1.398 1.401a773 773 0 0 0-3.427 3.464l-2.03 2.063-.017 1.556-.017 1.559-1.321.01c-.726.004-1.33-.003-1.344-.016m6.933-.181a35 35 0 0 0-.422-.491l-.446-.515-1.079-1.236-.883-1.008.844-.855c.465-.47.854-.853.865-.852s.1.094.195.205c.3.35.807.928 1.269 1.448.72.812 2.303 2.602 2.698 3.05.2.228.364.425.364.436s-.727.022-1.616.022h-1.616z" style="fill:#fff;fill-opacity:1;stroke-width:.0356081"></path><path d="M5.23 23.382c-.56-.082-.999-.45-1.193-1l-.053-.154-.006-8.776c-.005-6.584 0-8.812.016-8.919a1.49 1.49 0 0 1 .888-1.132c.244-.107.264-.11 1.503-.11h1.142v1.332l-.702-.006c-.386-.003-.766.003-.845.013a.76.76 0 0 0-.669.613c-.012.067-.017 2.883-.014 8.152l.005 8.05.07.146a.86.86 0 0 0 .397.404l.124.062h12.205l.13-.063a.83.83 0 0 0 .452-.575q.02-.104.02-8.098c0-8.633.006-8.093-.094-8.288a.81.81 0 0 0-.546-.403c-.073-.014-.383-.021-.85-.02l-.736.002-.004-.66-.005-.66h1.143c1.279 0 1.278 0 1.576.14.412.197.684.542.807 1.025.035.14.036.358.03 8.919-.005 7.906-.007 8.788-.035 8.9a1.46 1.46 0 0 1-.885 1.018c-.295.115.133.109-7.115.106-3.655 0-6.695-.01-6.755-.018M8.587 5.467a.59.59 0 0 1-.363-.418 24 24 0 0 1-.012-1.127c.004-1.21 0-1.176.157-1.339.178-.181.161-.178 1.058-.185.585-.005.787-.012.797-.029a.5.5 0 0 0 .016-.14c0-.121.05-.344.116-.522.122-.33.423-.684.728-.86.711-.41 1.6-.304 2.159.259q.242.243.381.565c.075.176.149.488.149.634v.086l.788.007.788.006.108.052a.64.64 0 0 1 .29.298c.04.087.04.105.04 1.197v1.107l-.045.1a.74.74 0 0 1-.302.303c-.07.035-.184.037-3.415.04-3.277.004-3.344.003-3.438-.033m3.623-2.434a.7.7 0 0 0 .35-.277.685.685 0 0 0-.272-1.006c-.097-.047-.13-.053-.291-.053s-.194.006-.29.053a.76.76 0 0 0-.341.372.7.7 0 0 0-.042.268c0 .14.008.174.06.28a.76.76 0 0 0 .37.351.8.8 0 0 0 .456.012" style="fill:#fff;fill-opacity:1;stroke-width:.97677"></path><path d="M16.925 20.375H6.604m10.42-2.52H6.703" style="fill:#1867c0;fill-opacity:1;stroke:#fff;stroke-width:.926162;stroke-dasharray:1.85232,.926162;stroke-dashoffset:0;stroke-opacity:1"></path></svg>